# xmcd
#
# Track frame offsets:
#	150
#	13725
#	28576
#	43732
#	58658
#	79058
#	99158
#	116409
#	138685
#	152936
#	165387
#	177839
#	195764
#	213689
#	235439
#
# Disc length: 3365 seconds
#
# Revision: 1
# Processed by: cddbd v1.5.1PL2 Copyright (c) Steve Scherf et al.
# Submitted via: EasyCDDAExtractor 8.0.1.1
#
DISCID=c40d230f
DTITLE=Alexandre Rosa - Campeiríssimo and Povoeiro
DYEAR=1900
DGENRE=Country
TTITLE0=01 Caprichos de Um Gaudério Payador
TTITLE1=02 Reponte
TTITLE2=03 Canto e Cenário
TTITLE3=04 Rancheira Para Um Domador
TTITLE4=05 Redomoneando
TTITLE5=06 De Ontem e Hoje
TTITLE6=07 Arreios de Prata
TTITLE7=08 Pêlo de Lua
TTITLE8=09 Pampa Guria
TTITLE9=10 Guapeando a Sosrte
TTITLE10=11 Campeiríssimo and Povoeiro
TTITLE11=12 Matreiro
TTITLE12=13 Feitiço
TTITLE13=14 Ginete de Cabanha
TTITLE14=15 Palanque de Cordas
EXTD=
EXTT0=
EXTT1=
EXTT2=
EXTT3=
EXTT4=
EXTT5=
EXTT6=
EXTT7=
EXTT8=
EXTT9=
EXTT10=
EXTT11=
EXTT12=
EXTT13=
EXTT14=
PLAYORDER=
